<svg width="24" height="24" viewBox="0 0 24 24" fill="none" xmlns="http://www.w3.org/2000/svg">
<path d="M16.2428 6.34262L6.34334 16.2421C5.95281 16.6326 5.95281 17.2658 6.34334 17.6563C6.73386 18.0468 7.36703 18.0468 7.75755 17.6563L17.657 7.75683C18.0476 7.36631 18.0476 6.73314 17.657 6.34262C17.2665 5.95209 16.6334 5.95209 16.2428 6.34262Z" fill="#80808F"/>
<path d="M17.6569 16.2433L7.7574 6.34383C7.36688 5.9533 6.73371 5.9533 6.34319 6.34383C5.95266 6.73435 5.95266 7.36751 6.34319 7.75804L16.2427 17.6575C16.6332 18.0481 17.2664 18.0481 17.6569 17.6575C18.0474 17.267 18.0474 16.6338 17.6569 16.2433Z" fill="#80808F"/>
</svg>
