<svg width="32" height="32" viewBox="0 0 32 32" fill="none" xmlns="http://www.w3.org/2000/svg">
<path opacity="0.3" fill-rule="evenodd" clip-rule="evenodd" d="M29.3333 20.0131L29.3666 20V26.1144C29.3666 26.8508 28.7696 27.4477 28.0333 27.4477C27.6796 27.4477 27.3405 27.3072 27.0904 27.0572L24.0333 24H8C5.79086 24 4 22.2091 4 20V8C4 5.79086 5.79086 4 8 4H25.3333C27.5425 4 29.3333 5.79086 29.3333 8V20C29.3333 20.0044 29.3333 20.0087 29.3333 20.0131Z" fill="#3699FF"/>
<path fill-rule="evenodd" clip-rule="evenodd" d="M10 16C8.89543 16 8 15.1046 8 14C8 12.8954 8.89543 12 10 12C11.1046 12 12 12.8954 12 14C12 15.1046 11.1046 16 10 16ZM16.6667 16C15.5621 16 14.6667 15.1046 14.6667 14C14.6667 12.8954 15.5621 12 16.6667 12C17.7712 12 18.6667 12.8954 18.6667 14C18.6667 15.1046 17.7712 16 16.6667 16ZM23.3333 16C22.2288 16 21.3333 15.1046 21.3333 14C21.3333 12.8954 22.2288 12 23.3333 12C24.4379 12 25.3333 12.8954 25.3333 14C25.3333 15.1046 24.4379 16 23.3333 16Z" fill="#3699FF"/>
</svg>
